# xmcd
#
# Track frame offsets: 
#        150
#        27300
#        55351
#        79651
#        111453
#        143554
#        171679
#        205880
#        234832
#        262957
#        294233
#
# Disc length: 4257 seconds
#
# Revision: 3
# Processed by: cddbd v1.5.2PL0 Copyright (c) Steve Scherf et al.
# Submitted via: ExactAudioCopy v1.3
#
DISCID=9a109f0b
DTITLE=Eric Alexander - Gentle Ballads
DYEAR=2004
DGENRE=Jazz
TTITLE0=The Midnight Sun Will Never Set
TTITLE1=Left Alone
TTITLE2=Gently
TTITLE3=Here's To Life
TTITLE4=Midnight Sun
TTITLE5=Harlem Nocturne
TTITLE6=Soul Eyes
TTITLE7=Under A Blanket Of Blue
TTITLE8=Stormy Weather
TTITLE9=Chelsea Bridge
TTITLE10=Harlem Nocturne II
EXTD=YEAR: 2004
EXTT0=
EXTT1=
EXTT2=
EXTT3=
EXTT4=
EXTT5=
EXTT6=
EXTT7=
EXTT8=
EXTT9=
EXTT10=
PLAYORDER=
